<svg xmlns="http://www.w3.org/2000/svg" width="1200" height="675" viewBox="0 0 1200 675">
  <defs>
    <linearGradient id="bg" x1="0" x2="1" y1="0" y2="1">
      <stop offset="0" stop-color="#050915" />
      <stop offset="1" stop-color="#0a1430" />
    </linearGradient>
    <linearGradient id="split" x1="0" x2="1" y1="0" y2="0">
      <stop offset="0" stop-color="#0b0f18" />
      <stop offset="0.5" stop-color="#0b0f18" />
      <stop offset="0.5" stop-color="#0f1f2f" />
      <stop offset="1" stop-color="#0f1f2f" />
    </linearGradient>
  </defs>
  <rect width="1200" height="675" fill="url(#bg)" />
  <rect x="60" y="60" width="1080" height="555" rx="24" fill="#0b1224" stroke="#1f2937" stroke-width="2" />
  <rect x="90" y="120" width="1020" height="405" rx="18" fill="url(#split)" stroke="#233145" stroke-width="2" />
  <rect x="90" y="120" width="510" height="405" rx="18" fill="#0f172a" opacity="0.9" />
  <rect x="600" y="120" width="510" height="405" rx="18" fill="#0b1a2a" opacity="0.95" />
  <rect x="90" y="120" width="510" height="405" rx="18" fill="none" stroke="#111827" stroke-width="2" />
  <rect x="600" y="120" width="510" height="405" rx="18" fill="none" stroke="#00ff88" stroke-width="2" opacity="0.6" />
  <line x1="600" y1="120" x2="600" y2="525" stroke="#00ff88" stroke-width="2" opacity="0.6" />

  <text x="210" y="95" fill="#64748b" font-family="Inter, Arial, sans-serif" font-size="18" letter-spacing="3">ANTES</text>
  <text x="865" y="95" fill="#00ff88" font-family="Inter, Arial, sans-serif" font-size="18" letter-spacing="3">DEPOIS</text>

  <circle cx="240" cy="320" r="60" fill="#0f172a" stroke="#1f2937" stroke-width="2" />
  <rect x="340" y="280" width="190" height="24" rx="12" fill="#111827" />
  <rect x="340" y="320" width="160" height="14" rx="7" fill="#0f172a" />
  <rect x="340" y="350" width="120" height="12" rx="6" fill="#0f172a" />

  <circle cx="740" cy="320" r="60" fill="#00ff88" opacity="0.15" stroke="#00ff88" stroke-width="2" />
  <rect x="840" y="275" width="220" height="26" rx="13" fill="#00ff88" opacity="0.12" />
  <rect x="840" y="320" width="200" height="16" rx="8" fill="#00ff88" opacity="0.2" />
  <rect x="840" y="352" width="140" height="12" rx="6" fill="#00ff88" opacity="0.2" />

  <text x="600" y="590" text-anchor="middle" fill="#94a3b8" font-family="JetBrains Mono, monospace" font-size="16" letter-spacing="2">ANTES / DEPOIS</text>
</svg>
